<?xml version="1.0" standalone="no"?>
<!DOCTYPE svg PUBLIC "-//W3C//DTD SVG 20010904//EN"
 "http://www.w3.org/TR/2001/REC-SVG-20010904/DTD/svg10.dtd">
<svg version="1.0" xmlns="http://www.w3.org/2000/svg"
 width="250.000000pt" height="250.000000pt" viewBox="0 0 250.000000 250.000000"
 preserveAspectRatio="xMidYMid meet">
<metadata>
Created by potrace 1.11, written by Peter Selinger 2001-2013
</metadata>
<g transform="translate(0.000000,250.000000) scale(0.100000,-0.100000)"
fill="#000000" stroke="none">
<path d="M1040 1916 c-80 -18 -79 -18 -150 -54 -36 -18 -80 -48 -98 -65 -31
-30 -98 -127 -87 -127 2 0 0 -12 -6 -27 -29 -71 -10 -225 34 -288 49 -70 148
-143 232 -171 18 -6 199 -71 220 -79 123 -45 165 -88 165 -166 0 -92 -57 -150
-158 -162 -33 -3 -42 -1 -38 9 3 8 -2 11 -16 9 -11 -2 -27 2 -35 10 -8 9 -18
13 -23 10 -4 -3 -11 2 -14 11 -4 9 -9 14 -13 10 -3 -3 -15 1 -25 11 -10 9 -18
12 -18 7 -1 -5 -7 2 -15 16 -8 14 -14 19 -15 12 0 -7 -5 -10 -10 -7 -6 4 -7
12 -3 18 4 7 -1 6 -10 -2 -14 -11 -15 -16 -5 -29 11 -13 10 -15 -4 -10 -9 4
-23 -1 -33 -12 -17 -19 -18 -19 -57 1 -21 11 -48 29 -59 40 -22 22 -35 17 -73
-30 -11 -13 -29 -33 -40 -45 -55 -58 -66 -74 -61 -88 6 -14 64 -57 135 -100
34 -20 157 -65 200 -73 57 -11 330 -14 336 -4 3 5 11 6 17 2 16 -10 87 -11 81
-1 -3 4 0 8 6 8 6 0 9 4 5 9 -7 12 29 33 39 24 3 -3 6 -2 6 4 0 11 57 37 73
34 4 0 7 5 7 13 0 17 50 51 69 47 12 -2 12 0 3 11 -9 11 -6 21 16 45 16 16 26
36 24 44 -2 8 3 5 10 -6 25 -41 13 -103 -18 -91 -8 3 -13 0 -11 -7 1 -7 -7
-11 -18 -9 -15 2 -16 0 -7 -6 11 -7 10 -11 -5 -17 -28 -12 -44 -14 -37 -4 3 5
0 9 -6 9 -7 0 -9 -7 -6 -16 7 -19 -11 -47 -25 -38 -5 3 -6 -3 -3 -13 6 -15 4
-15 -10 2 -12 15 -14 15 -10 4 7 -23 -13 -34 -33 -17 -10 8 -14 8 -10 1 5 -8
-1 -10 -20 -7 -21 3 -24 2 -13 -6 10 -6 11 -10 3 -10 -7 0 -13 -5 -13 -11 0
-6 5 -7 13 -2 6 4 22 9 35 10 45 6 77 11 77 13 0 1 20 7 49 13 8 2 20 8 28 15
8 6 19 8 23 4 5 -4 4 -1 0 7 -6 11 -4 13 8 8 9 -3 16 -3 16 1 -3 19 2 25 11
12 7 -11 10 -11 10 -2 0 7 5 10 10 7 6 -4 9 -3 8 2 -2 4 0 8 4 8 14 0 57 49
51 58 -4 7 1 8 13 3 10 -4 15 -4 11 0 -4 4 1 13 11 21 16 12 16 13 -3 7 -15
-4 -12 1 10 20 17 14 30 30 30 35 0 5 3 12 7 16 4 4 4 14 1 23 -5 11 -3 13 8
7 8 -4 11 -5 7 0 -4 4 -2 15 4 23 10 11 9 17 -5 27 -20 14 -12 26 11 18 13 -4
12 -1 -3 11 -16 13 -17 15 -2 10 13 -5 16 -2 14 12 -1 11 -6 25 -10 32 -5 7
-3 12 5 12 7 1 2 7 -12 16 -23 14 -23 14 -2 9 21 -6 30 4 15 19 -4 4 -8 20 -8
36 0 16 -9 38 -19 49 -14 16 -16 21 -5 21 11 0 11 2 -1 10 -8 5 -16 14 -16 20
-1 5 -2 15 -3 21 0 5 -6 7 -13 3 -7 -5 -9 -2 -6 8 4 10 -4 23 -22 37 -27 20
-30 20 -39 3 -14 -22 -14 -6 -1 18 9 16 8 18 -5 14 -10 -4 -15 -2 -13 7 2 7
-3 14 -9 15 -7 1 -18 2 -24 3 -5 0 -7 6 -3 13 4 7 3 8 -4 4 -7 -4 -12 -2 -12
5 0 7 -3 9 -6 6 -4 -4 -1 -13 6 -22 7 -8 8 -15 2 -15 -15 0 -34 28 -27 40 4 6
3 9 -2 8 -4 -1 -18 3 -30 10 -13 7 -23 9 -23 5 0 -4 -5 -1 -10 7 -8 13 -10 13
-10 0 0 -10 -5 -7 -16 8 -8 12 -19 20 -24 17 -5 -3 -11 -1 -14 4 -9 13 -42 6
-38 -9 2 -7 -3 -10 -12 -7 -9 4 -18 1 -22 -5 -5 -7 -2 -8 6 -3 9 5 11 4 6 -4
-9 -14 16 -11 26 4 5 6 8 4 8 -4 0 -11 4 -10 16 5 8 10 13 13 9 7 -3 -7 -8
-22 -10 -32 -3 -15 1 -19 16 -16 10 2 19 -2 19 -8 0 -7 4 -6 10 3 8 13 10 13
10 1 0 -11 4 -9 16 5 14 18 15 18 4 -3 -6 -13 -7 -23 -3 -23 4 0 1 -5 -7 -11
-13 -9 -12 -10 3 -5 12 4 16 2 11 -6 -5 -7 -3 -8 6 -3 9 5 11 4 6 -3 -5 -8 -1
-10 10 -5 13 5 15 2 10 -18 l-7 -24 15 25 c9 14 15 19 16 12 0 -7 5 -10 11 -6
8 5 8 9 -1 14 -9 5 -9 9 -1 14 6 4 11 2 11 -3 0 -6 3 -10 8 -10 28 5 35 -2 16
-17 -10 -8 -12 -12 -4 -8 8 4 5 -4 -7 -17 -20 -22 -23 -28 -23 -45 0 -3 -12 9
-27 28 -15 18 -37 41 -48 51 -11 11 -18 26 -17 35 3 14 2 14 -14 1 -15 -12
-16 -12 -9 0 6 11 4 13 -7 8 -9 -3 -23 2 -33 13 -10 11 -21 17 -26 15 -4 -3
-15 2 -23 11 -9 8 -16 13 -16 9 0 -3 -10 0 -22 7 -13 7 -25 13 -28 13 -3 0
-15 6 -27 13 -13 7 -23 10 -23 6 0 -3 -7 0 -17 7 -9 8 -18 13 -20 12 -1 -2 -4
-3 -5 -2 -6 1 -34 8 -57 13 -12 3 -29 10 -35 16 -7 5 -16 7 -19 3 -4 -3 -10 2
-13 11 -5 14 -9 15 -15 4 -7 -10 -9 -11 -9 0 0 7 -4 11 -8 8 -5 -3 -9 1 -9 9
0 18 13 20 21 3 3 -7 3 -1 1 14 -2 15 1 31 7 34 7 5 9 0 6 -14 -4 -15 -2 -19
8 -15 8 3 12 9 9 13 -10 16 10 18 30 3 12 -10 14 -14 5 -10 -11 3 -16 -2 -17
-14 -2 -27 16 -34 32 -13 8 11 15 14 15 7 0 -6 -5 -15 -10 -18 -13 -8 6 -35
24 -35 6 0 5 4 -3 9 -8 5 -9 11 -3 15 12 7 26 -10 18 -22 -3 -5 1 -9 8 -9 8 0
12 6 9 14 -3 7 0 13 6 13 6 0 10 -6 9 -12 -2 -7 3 -12 10 -10 8 1 11 -2 7 -9
-6 -8 -2 -8 13 0 12 7 23 7 26 2 4 -5 0 -12 -6 -15 -7 -3 -1 -3 15 -1 15 2 25
0 22 -5 -3 -4 3 -7 12 -6 10 2 23 -3 28 -10 8 -9 14 -8 30 8 19 18 19 19 1 12
-13 -5 -17 -4 -12 4 4 7 -1 10 -13 7 -11 -2 -25 2 -31 10 -6 7 -19 12 -28 10
-9 -1 -20 3 -24 9 -5 8 -8 7 -8 -1 0 -7 -5 -13 -12 -13 -6 0 -8 3 -5 7 11 11
-14 32 -30 26 -11 -4 -14 -2 -9 5 4 7 -1 10 -15 7 -15 -3 -19 0 -15 10 3 8 0
14 -7 12 -7 -1 -11 4 -9 11 1 8 -2 11 -8 7 -9 -6 -14 7 -11 28 0 4 -3 7 -8 7
-5 0 -8 18 -7 41 2 42 48 115 66 104 5 -3 11 -2 14 3 2 4 -6 8 -19 8 -13 0
-21 -4 -18 -10 3 -5 1 -6 -5 -2 -6 3 -13 2 -17 -4 -3 -5 -12 -10 -18 -10 -8 0
-8 3 2 9 9 6 10 11 2 15 -6 4 -11 3 -11 -3 0 -5 -11 -8 -24 -7 -16 2 -23 -1
-20 -9 3 -7 -2 -15 -11 -19 -10 -4 -14 -2 -9 6 5 7 3 8 -6 3 -9 -6 -11 -4 -5
5 5 8 4 11 -3 6 -6 -4 -9 -13 -6 -21 4 -9 -2 -13 -20 -11 -27 3 -30 -11 -6
-32 13 -12 13 -13 0 -9 -9 3 -24 -1 -35 -9 -13 -9 -14 -14 -5 -14 10 0 9 -4
-4 -13 -17 -13 -13 -52 5 -41 5 3 9 1 9 -4 0 -5 12 -9 28 -8 16 0 26 -5 25
-11 -2 -8 4 -10 14 -6 13 5 13 3 -3 -13 -10 -11 -21 -16 -22 -12 -2 5 -8 6
-12 3 -5 -3 -16 5 -24 17 -9 12 -16 18 -16 13 -1 -6 -7 1 -14 15 -7 14 -12 43
-12 65 2 33 5 39 21 37 16 -3 17 -1 7 11 -10 11 -9 17 3 27 8 7 15 9 15 4 0
-5 5 -1 11 8 6 11 16 15 26 11 11 -4 14 -2 9 5 -4 7 1 10 14 7 11 -2 22 0 24
4 7 10 171 5 188 -5 7 -5 18 -9 25 -10 23 -4 105 -49 129 -70 l23 -22 38 43
c36 42 39 43 56 27 11 -9 21 -16 23 -14 10 6 25 1 19 -7 -8 -14 34 -5 53 11
13 11 15 10 9 -5 -4 -10 -7 -21 -7 -23 0 -3 -4 -3 -9 1 -5 3 -13 0 -17 -6 -4
-8 -3 -9 4 -5 7 4 12 2 12 -4 0 -7 6 -10 13 -7 6 2 11 12 9 22 -2 10 1 14 7
11 12 -8 46 28 46 47 0 7 5 12 12 12 17 0 42 36 36 52 -3 8 -2 13 3 11 13 -4
16 5 8 25 -5 13 -9 15 -14 7 -5 -9 -10 -6 -14 8 -4 12 -16 24 -27 27 -10 4
-19 11 -19 16 0 6 -9 7 -20 4 -14 -4 -20 -2 -18 6 2 7 -1 13 -7 14 -5 0 -20 6
-32 13 -13 7 -23 10 -23 6 0 -4 -8 0 -17 8 -10 8 -25 14 -33 13 -8 0 -18 4
-22 10 -5 6 -8 6 -8 -2 0 -7 -5 -13 -11 -13 -5 0 -7 5 -3 12 4 6 3 8 -4 4 -6
-3 -13 -2 -16 3 -4 5 -21 8 -39 7 -17 -2 -36 -1 -42 3 -17 10 -107 9 -93 -2 9
-6 6 -6 -7 -1 -35 13 -257 13 -315 0z m415 -6 c6 -4 24 -6 40 -5 17 2 37 -3
45 -10 8 -7 29 -12 45 -10 32 2 58 -12 49 -26 -3 -5 0 -9 5 -9 6 0 11 6 11 13
0 8 4 7 10 -3 5 -8 10 -11 10 -6 0 5 6 3 13 -3 8 -6 17 -7 21 -3 4 4 6 0 4 -8
-2 -9 4 -14 15 -14 9 1 32 -12 50 -29 17 -17 35 -31 39 -32 3 0 10 -4 15 -8 4
-5 4 -8 -2 -7 -25 5 -37 0 -27 -13 7 -8 6 -18 -4 -31 -9 -13 -14 -15 -14 -6 0
9 -5 7 -14 -5 -8 -11 -12 -23 -10 -26 2 -4 -6 -15 -18 -25 -12 -11 -18 -14
-15 -8 10 18 -16 24 -37 8 -15 -11 -22 -11 -42 2 -12 9 -27 15 -31 15 -17 -2
-8 25 19 61 18 22 24 39 18 43 -6 3 -8 10 -6 14 3 4 -9 13 -26 20 -16 7 -45
29 -64 47 -18 19 -37 34 -41 34 -4 0 -1 -4 7 -10 8 -5 12 -11 9 -14 -3 -3 -14
2 -25 12 -11 10 -25 17 -32 14 -6 -2 -15 3 -18 12 -3 9 -10 16 -16 16 -5 0 -6
-6 -2 -12 6 -10 5 -10 -8 -1 -8 7 -19 9 -23 5 -5 -4 -5 -2 -2 4 7 12 37 15 52
4z m-242 -254 c7 5 4 1 -6 -8 -11 -10 -16 -18 -12 -18 4 0 2 -6 -4 -13 -6 -8
-8 -17 -4 -20 3 -4 1 -7 -5 -7 -7 0 -12 -5 -12 -11 0 -5 4 -8 9 -4 6 3 8 -4 6
-16 -2 -12 1 -31 7 -43 9 -17 9 -19 -3 -11 -17 12 -39 13 -57 1 -8 -5 -18 -4
-24 2 -6 6 -17 8 -24 5 -8 -3 -14 0 -14 7 0 6 -4 9 -8 6 -4 -2 -14 0 -22 5
-13 8 -13 10 0 19 8 5 15 15 15 22 0 7 7 13 15 14 30 2 32 4 20 19 -7 8 -11
15 -9 16 16 3 36 7 49 10 8 2 21 12 28 22 11 14 17 15 28 6 8 -7 19 -8 27 -3z
m-3 -191 c-7 -9 -15 -13 -19 -10 -3 3 1 10 9 15 21 14 24 12 10 -5z m95 -34
c3 -5 2 -12 -3 -15 -5 -3 -9 1 -9 9 0 17 3 19 12 6z m88 -41 c10 -12 9 -12 -4
-2 -9 6 -18 9 -21 6 -3 -3 -9 -1 -12 4 -9 15 22 8 37 -8z m107 -26 c0 -8 -19
-13 -24 -6 -3 5 1 9 9 9 8 0 15 -2 15 -3z m63 -36 c7 2 8 0 4 -4 -11 -11 -57
-13 -63 -2 -3 4 0 8 5 8 6 0 10 3 10 8 -4 22 3 25 17 7 8 -11 21 -18 27 -17z
m61 -33 c13 -19 13 -25 2 -34 -10 -9 -19 -6 -37 9 -13 10 -19 19 -12 20 6 0
10 9 8 19 -5 26 19 17 39 -14z m80 -36 c-2 -4 0 -10 6 -14 6 -4 8 -11 5 -16
-4 -5 -4 -13 0 -19 8 -13 36 0 29 14 -3 6 3 1 14 -11 11 -12 23 -19 27 -15 5
4 5 1 1 -6 -4 -7 -12 -10 -17 -6 -5 3 -17 0 -26 -8 -15 -11 -16 -11 -9 6 7 20
7 20 -14 1 -13 -11 -24 -15 -28 -10 -4 6 -14 11 -22 13 -10 1 -9 -2 4 -13 11
-8 17 -16 13 -16 -4 -1 -12 -2 -17 -3 -6 0 -15 -8 -21 -16 -9 -12 -9 -11 -4 5
4 11 8 25 9 31 1 5 12 23 24 39 22 27 22 30 6 42 -15 11 -14 12 4 10 11 0 19
-4 16 -8z m86 -94 c14 -8 19 -14 13 -15 -7 0 -13 -4 -13 -10 0 -5 3 -9 8 -7 4
1 7 -1 7 -4 0 -4 9 -16 19 -28 22 -24 31 -71 13 -71 -6 0 -2 -7 9 -16 10 -8
13 -13 7 -9 -24 12 -37 -7 -17 -23 19 -14 18 -15 -1 -8 -20 6 -20 6 -1 -9 25
-19 30 -46 8 -38 -11 5 -14 2 -9 -10 3 -9 1 -19 -5 -23 -7 -5 -5 -12 7 -20 17
-13 17 -15 1 -33 -9 -10 -16 -22 -15 -27 1 -5 0 -12 -1 -16 -1 -5 -3 -12 -4
-18 0 -5 -16 -21 -35 -35 -19 -14 -28 -25 -20 -25 10 -1 9 -3 -4 -11 -9 -6
-15 -14 -12 -18 2 -5 -4 -16 -15 -26 -11 -10 -20 -14 -20 -10 0 4 -9 0 -20
-10 -11 -10 -20 -15 -20 -10 0 4 -7 2 -15 -5 -8 -7 -15 -9 -15 -5 0 4 -9 -4
-20 -18 -11 -14 -28 -24 -38 -23 -9 2 -20 -2 -24 -8 -5 -7 -8 -6 -8 3 0 11 -4
9 -15 -5 -8 -10 -15 -16 -15 -13 0 3 11 20 25 39 14 19 25 31 25 27 0 -9 47
20 80 50 14 13 29 23 34 23 4 0 4 6 -1 13 -6 6 -9 20 -8 29 2 10 -1 21 -6 24
-6 3 -7 15 -3 26 5 16 3 19 -7 12 -11 -6 -12 -5 -2 8 7 8 10 18 6 22 -4 4 1 4
12 0 18 -7 18 -6 6 9 -15 18 -9 33 8 23 5 -4 8 -16 5 -29 -3 -12 -6 -26 -7
-32 -2 -5 -7 -16 -11 -24 -6 -9 -5 -12 1 -8 7 4 10 -5 8 -23 -1 -16 1 -27 6
-25 4 3 6 14 4 25 -2 11 0 20 4 20 16 0 20 -13 9 -34 -19 -33 -19 -50 -2 -35
16 13 19 -2 3 -18 -8 -8 -7 -13 2 -18 8 -6 10 -4 4 5 -6 9 -4 11 5 5 9 -6 11
-4 5 5 -6 9 -4 11 4 5 10 -6 11 -3 2 14 -10 18 -9 20 6 15 17 -5 17 -5 1 9
-18 14 -25 33 -10 23 4 -2 18 4 31 14 l24 18 -26 -3 c-15 -2 -27 1 -27 7 0 5
8 7 19 3 11 -3 27 3 42 16 l24 21 -25 -16 c-32 -21 -42 -20 -38 2 3 17 37 49
50 45 3 -1 9 4 12 13 4 11 2 12 -13 5 -18 -10 -31 -6 -31 10 0 4 9 6 20 4 11
-2 23 1 26 7 5 7 2 8 -7 3 -12 -8 -12 -6 0 8 7 9 10 17 7 17 -4 0 -2 8 3 18 7
12 7 22 0 29 -5 5 -12 20 -14 33 -3 13 -14 33 -25 45 -18 17 -20 17 -14 3 7
-21 -6 -24 -24 -6 -9 9 -12 9 -12 -1 0 -7 -5 -9 -12 -5 -7 5 -8 3 -3 -6 6 -9
4 -11 -5 -5 -9 6 -11 4 -5 -5 6 -9 4 -11 -5 -5 -8 5 -11 4 -6 -3 4 -6 14 -8
23 -5 13 5 12 0 -6 -25 -12 -18 -18 -32 -12 -32 6 0 11 5 11 11 0 5 5 7 11 3
6 -3 7 -9 3 -13 -17 -12 -13 -30 15 -59 22 -25 24 -30 10 -29 -10 1 -15 5 -12
11 3 5 1 6 -6 2 -6 -4 -19 -2 -28 6 -12 9 -15 9 -9 1 5 -9 2 -11 -9 -6 -9 3
-13 9 -8 12 11 7 11 116 0 127 -4 4 1 16 10 26 17 19 16 20 -7 39 -14 10 -20
19 -15 19 6 0 3 5 -5 10 -9 6 -11 10 -3 10 7 0 10 7 7 18 -4 13 -3 14 4 4 7
-11 10 -11 16 3 3 9 10 13 16 10 5 -3 10 -1 10 5 0 7 7 10 15 7 8 -4 17 -2 20
3 8 13 15 12 45 -5z m-100 -105 c0 -5 -4 -10 -10 -10 -5 0 -10 5 -10 10 0 6 5
10 10 10 6 0 10 -4 10 -10z m101 -39 c3 -28 9 -45 18 -54 7 -7 7 -16 0 -29 -5
-10 -7 -18 -3 -18 3 0 1 -7 -6 -15 -7 -8 -16 -13 -20 -10 -5 3 -11 1 -15 -5
-4 -6 -11 -8 -16 -4 -5 3 -7 9 -4 14 3 4 -2 11 -10 14 -12 4 -13 10 -6 24 7
13 7 22 -1 30 -9 9 -9 15 -1 23 6 6 9 17 7 24 -3 7 6 12 26 12 16 0 30 -3 31
-6z m-811 -155 c0 5 5 1 11 -9 6 -9 14 -15 19 -12 5 3 16 -5 24 -17 11 -15 16
-18 16 -8 1 11 3 11 11 -3 6 -9 14 -15 18 -12 5 2 16 -4 25 -14 16 -17 15 -18
-21 -15 -21 1 -49 5 -63 9 -14 4 -31 7 -37 7 -7 1 -13 5 -13 10 0 5 -9 6 -20
3 -15 -5 -20 -2 -20 12 0 15 -2 16 -10 3 -5 -8 -10 -10 -10 -4 0 6 8 18 17 25
11 10 14 10 9 2 -4 -8 -2 -13 4 -13 6 0 8 -4 5 -10 -3 -6 1 -7 10 -3 12 4 13
8 5 13 -9 6 -9 9 -1 15 9 5 9 11 -1 23 -12 15 -11 16 5 3 9 -7 17 -10 17 -5z
m779 -11 l23 2 -23 -18 c-13 -10 -20 -19 -15 -19 5 0 1 -9 -8 -19 -18 -20 -13
-47 6 -35 7 5 8 2 3 -6 -6 -10 -12 -8 -25 8 -10 12 -20 18 -23 15 -4 -3 -4 5
-1 18 3 13 6 34 7 46 1 16 5 20 17 14 8 -5 26 -7 39 -6z m-371 -297 c-2 -6
-14 -12 -26 -13 -11 -1 -19 2 -16 7 4 5 12 7 20 4 8 -3 14 -1 14 4 0 6 3 10 6
10 3 0 4 -5 2 -12z"/>
<path d="M1496 1888 c3 -4 11 -5 19 -2 8 3 21 -5 31 -20 14 -22 19 -24 32 -14
13 11 15 10 9 -4 -4 -11 2 -22 19 -32 13 -9 24 -14 24 -10 0 4 7 1 15 -6 8 -7
13 -16 10 -20 -3 -5 0 -12 5 -15 8 -5 6 -13 -6 -26 -9 -10 -13 -19 -9 -19 5 0
0 -6 -10 -14 -10 -7 -20 -21 -21 -31 -1 -9 0 -14 3 -11 4 3 16 0 29 -8 18 -13
25 -13 40 -1 13 9 24 10 36 4 10 -5 19 -7 19 -4 1 3 2 8 3 13 5 21 28 52 36
47 5 -3 11 -1 14 4 4 5 2 12 -3 16 -6 3 -8 12 -5 20 7 17 -44 68 -58 59 -5 -3
-20 4 -34 17 -13 12 -24 18 -24 12 0 -12 -25 -11 -37 1 -4 4 -8 12 -8 18 0 16
-34 18 -48 4 -9 -10 -15 -8 -29 10 -16 20 -64 32 -52 12z m119 -28 c-8 -13 29
-38 50 -34 11 1 30 -6 41 -17 13 -13 23 -16 26 -9 2 6 12 3 26 -10 12 -12 20
-26 16 -31 -3 -5 0 -17 8 -26 8 -10 8 -14 1 -10 -13 8 -56 -46 -45 -58 4 -4
-3 -3 -15 4 -15 7 -24 8 -28 1 -4 -6 -11 -8 -16 -5 -5 4 -9 1 -9 -5 0 -6 -10
-4 -25 6 -22 15 -27 42 -4 29 8 -5 13 9 7 18 -6 8 24 35 42 40 16 4 18 2 10
-13 -5 -10 -16 -20 -25 -24 -8 -3 -15 -11 -15 -18 0 -10 2 -10 9 1 5 8 14 10
21 6 8 -5 11 -4 7 2 -3 5 0 10 8 10 8 0 12 -3 10 -7 -2 -4 2 -7 9 -7 8 0 12 6
9 14 -3 7 -9 13 -14 13 -5 0 -9 5 -9 10 0 14 23 8 36 -10 9 -11 11 -9 9 13 -2
17 1 25 7 21 7 -4 8 -2 4 5 -4 6 -12 9 -17 6 -5 -4 -9 0 -9 7 0 9 -3 9 -10 -2
-7 -11 -10 -12 -10 -2 0 10 -4 9 -16 -3 -15 -15 -40 -17 -32 -3 4 8 -33 48
-41 44 -3 -2 -15 2 -26 10 -11 8 -14 14 -6 14 10 0 11 3 2 13 -8 10 -7 14 4
14 8 0 12 -3 10 -7z m131 -102 c3 -4 -1 -5 -10 -4 -8 1 -18 5 -22 8 -3 4 1 5
10 4 8 -1 18 -5 22 -8z"/>
<path d="M1670 1798 c12 -10 16 -18 9 -18 -7 0 -9 -3 -6 -6 4 -4 13 -1 22 6
19 16 3 39 -27 37 -19 -1 -19 -2 2 -19z m25 2 c3 -6 -1 -7 -9 -4 -18 7 -21 14
-7 14 6 0 13 -4 16 -10z"/>
<path d="M1665 1730 c-3 -6 1 -7 9 -4 18 7 21 14 7 14 -6 0 -13 -4 -16 -10z"/>
<path d="M1674 1688 c-3 -5 -10 -6 -15 -3 -5 4 -9 1 -9 -4 0 -11 35 -10 46 1
3 4 12 4 20 1 8 -3 14 -1 14 4 0 11 -49 12 -56 1z"/>
<path d="M1169 1654 c-1 -5 -1 -12 0 -16 0 -5 -2 -8 -6 -9 -5 0 -17 -3 -28 -5
-11 -3 -26 -6 -32 -6 -9 -1 -10 -5 -3 -13 13 -16 -14 -40 -31 -29 -7 4 -9 3
-5 -4 3 -6 2 -13 -4 -17 -5 -3 -10 -12 -10 -18 0 -7 5 -4 11 6 5 9 15 17 21
17 7 0 6 -5 -2 -15 -7 -8 -10 -16 -6 -16 3 -1 10 -2 15 -3 5 0 13 -4 17 -8 13
-13 26 -9 21 7 -4 8 -2 17 2 20 5 3 11 -2 15 -10 3 -8 11 -15 18 -14 10 0 10
2 1 6 -14 5 -18 24 -5 22 18 -3 24 2 14 14 -6 7 -9 22 -7 32 2 11 4 24 4 28 1
5 5 6 10 3 5 -4 8 1 7 9 -3 17 -16 32 -17 19z m-15 -57 c-2 -11 1 -26 6 -32 7
-8 5 -12 -5 -12 -8 0 -12 4 -9 9 3 4 3 8 0 8 -2 0 -13 3 -23 6 -14 5 -15 4 -4
-4 12 -8 12 -14 3 -25 -7 -7 -8 -18 -4 -23 4 -4 0 -3 -9 4 -9 6 -20 8 -25 4
-4 -4 -2 1 5 11 7 9 10 17 6 17 -4 0 -2 7 5 15 7 9 20 13 29 10 12 -4 12 -2
-2 9 -13 10 -15 15 -5 18 26 9 36 4 32 -15z"/>
<path d="M1103 1555 c0 -8 4 -12 9 -9 5 3 6 10 3 15 -9 13 -12 11 -12 -6z"/>
<path d="M1594 1298 c3 -22 17 -39 26 -33 6 4 4 14 -3 25 -13 23 -26 26 -23 8z"/>
<path d="M1679 1203 c-7 -10 -9 -15 -5 -11 5 4 15 3 22 -3 7 -6 14 -6 18 -1 3
6 0 15 -8 21 -10 9 -17 7 -27 -6z"/>
<path d="M1745 1160 c-3 -6 -10 -8 -15 -5 -14 9 -23 -15 -10 -30 9 -11 7 -14
-9 -12 -16 1 -20 6 -15 22 6 20 6 20 -9 0 -11 -15 -12 -22 -4 -27 9 -6 8 -8
-2 -8 -8 0 -4 -8 10 -19 l24 -19 -20 -23 -20 -23 27 20 c28 20 36 34 17 34 -5
0 -7 5 -3 11 4 8 12 2 21 -15 15 -28 26 -36 17 -11 -10 25 13 17 39 -15 25
-29 38 -38 36 -22 -1 4 0 9 1 12 9 22 4 53 -11 66 -10 9 -16 21 -13 26 3 4 0
7 -8 6 -7 -2 -12 5 -11 15 0 10 -2 16 -5 13 -3 -3 -11 -1 -18 5 -8 7 -14 7
-19 -1z m78 -102 c0 -10 -1 -21 -2 -25 0 -4 -14 6 -30 21 -18 17 -34 25 -42
21 -8 -5 -10 -4 -5 3 4 7 2 12 -4 12 -7 0 -10 7 -7 15 4 8 2 17 -3 20 -6 4
-10 12 -10 18 0 8 3 8 9 -1 6 -11 10 -10 15 4 5 14 13 10 43 -26 21 -24 37
-52 36 -62z m-109 31 c-3 -5 -10 -7 -15 -3 -5 3 -7 10 -3 15 3 5 10 7 15 3 5
-3 7 -10 3 -15z"/>
<path d="M1748 1134 c-9 -18 -2 -31 33 -62 29 -25 35 -28 34 -13 -1 21 -60 87
-67 75z m56 -63 c-5 -7 -49 35 -52 49 -2 8 10 2 25 -15 16 -16 28 -32 27 -34z"/>
<path d="M1699 938 c-7 -26 -4 -40 13 -49 18 -10 19 -9 7 13 -7 13 -12 26 -11
31 2 6 -7 11 -9 5z"/>
<path d="M1824 862 c4 -7 2 -13 -3 -13 -6 -1 -16 -2 -22 -3 -6 0 -19 -12 -28
-26 l-16 -24 33 19 c44 26 56 41 41 51 -8 4 -9 3 -5 -4z"/>
<path d="M1778 770 c-44 -47 -44 -49 2 -15 19 14 30 25 26 25 -5 0 -3 7 4 15
24 29 4 14 -32 -25z"/>
<path d="M1652 667 c-23 -24 -19 -45 5 -26 7 6 13 8 13 4 0 -4 6 -2 14 5 14
11 12 40 -3 40 -4 0 -17 -10 -29 -23z m29 -1 c-1 -3 -4 -6 -8 -7 -5 0 -15 -6
-23 -12 -8 -6 -6 -2 4 11 17 20 29 23 27 8z"/>
<path d="M1597 628 c-11 -9 -14 -18 -8 -27 7 -11 10 -11 17 0 8 13 15 39 10
39 -1 0 -10 -6 -19 -12z"/>
<path d="M1556 602 c-3 -5 1 -9 9 -9 8 0 12 4 9 9 -3 4 -7 8 -9 8 -2 0 -6 -4
-9 -8z"/>
<path d="M1745 1012 c3 -3 0 -11 -6 -19 -9 -10 -8 -17 1 -28 7 -8 9 -15 5 -15
-4 0 -3 -6 2 -12 6 -7 9 -21 8 -31 -3 -13 0 -15 8 -8 7 5 16 11 22 13 5 1 10
8 11 13 1 6 3 15 5 20 2 6 -3 21 -11 35 -7 14 -14 27 -14 30 -1 2 -9 5 -18 5
-10 1 -16 -1 -13 -3z m31 -11 c-3 -4 1 -17 8 -27 9 -12 11 -25 5 -35 -4 -9 -6
-18 -4 -21 3 -3 -2 -5 -10 -5 -8 0 -13 3 -10 5 3 3 0 11 -6 19 -6 7 -8 13 -4
13 4 0 1 7 -6 16 -11 14 -10 18 6 30 22 16 29 18 21 5z"/>
<path d="M1764 955 c1 -8 6 -18 11 -22 4 -4 5 -2 1 5 -4 6 -2 12 4 12 6 0 8 5
5 10 -9 15 -24 12 -21 -5z"/>
<path d="M973 830 c1 -18 10 -24 30 -21 4 0 7 -3 7 -7 0 -5 6 -9 13 -10 6 -1
27 -3 44 -5 18 -3 30 -1 27 4 -3 5 -9 7 -14 4 -5 -3 -11 -1 -15 4 -3 6 -12 8
-19 5 -8 -3 -16 4 -19 16 -3 12 -10 19 -16 16 -5 -4 -12 -2 -16 4 -11 17 -24
11 -22 -10z m25 -15 c-3 -3 -9 2 -12 12 -6 14 -5 15 5 6 7 -7 10 -15 7 -18z"/>
<path d="M1718 843 c10 -4 10 -9 -3 -23 -9 -10 -12 -21 -7 -24 5 -3 15 1 22 9
7 8 9 15 5 15 -4 0 -3 6 3 13 8 10 6 13 -11 14 -12 0 -16 -1 -9 -4z"/>
<path d="M1076 1653 c-6 -14 -5 -15 5 -6 7 7 10 15 7 18 -3 3 -9 -2 -12 -12z"/>
<path d="M1045 1641 c-3 -5 -2 -12 3 -15 5 -3 9 1 9 9 0 17 -3 19 -12 6z"/>
<path d="M1023 1593 c0 -8 6 -9 19 -2 10 5 18 11 18 12 0 2 -8 3 -18 3 -10 0
-19 -6 -19 -13z"/>
<path d="M1067 1485 c2 -7 10 -12 17 -12 7 0 13 5 13 12 0 6 -8 11 -18 11 -9
0 -15 -5 -12 -11z"/>
<path d="M1160 1469 c-11 -8 -12 -12 -2 -16 6 -2 10 -9 6 -14 -3 -5 -2 -8 3
-7 4 1 19 -4 33 -11 22 -11 22 -10 -4 11 -17 15 -26 30 -22 36 9 15 5 15 -14
1z"/>
<path d="M1380 1366 c0 -3 9 -10 20 -16 11 -6 20 -8 20 -6 0 3 -9 10 -20 16
-11 6 -20 8 -20 6z"/>
<path d="M1650 1235 c-7 -8 -17 -12 -23 -8 -6 3 -7 1 -3 -5 4 -7 2 -12 -5 -12
-10 0 -10 -3 -1 -12 8 -8 15 -8 27 2 8 7 13 15 10 18 -3 3 0 11 6 19 6 7 9 13
6 13 -2 0 -10 -7 -17 -15z"/>
<path d="M1630 738 c-28 -33 -28 -41 -2 -44 12 -2 22 -1 23 4 4 30 5 62 2 62
-2 0 -12 -10 -23 -22z m16 -15 c-2 -9 -11 -17 -20 -19 -17 -2 -17 -2 0 17 21
23 23 23 20 2z"/>
<path d="M1571 666 c-8 -10 -9 -16 -1 -21 5 -3 10 -5 11 -3 4 18 7 38 4 38 -1
0 -8 -6 -14 -14z"/>
<path d="M1505 609 c-3 -4 2 -6 10 -5 21 3 28 13 10 13 -9 0 -18 -4 -20 -8z"/>
<path d="M1466 592 c-3 -6 -1 -14 5 -17 15 -10 25 3 12 16 -7 7 -13 7 -17 1z"/>
</g>
</svg>
